<svg width="21" height="21" viewBox="0 0 21 21" fill="none" xmlns="http://www.w3.org/2000/svg">
<mask id="mask0_290_1232" style="mask-type:alpha" maskUnits="userSpaceOnUse" x="0" y="2" width="21" height="17">
<path d="M7.19976 7.73508C7.19976 8.88563 6.30436 9.81833 5.19983 9.81833C4.09531 9.81833 3.19991 8.88563 3.19991 7.73508C3.19991 6.58454 4.09531 5.65184 5.19983 5.65184C6.30436 5.65184 7.19976 6.58454 7.19976 7.73508Z" fill="#006FFD"/>
<path fill-rule="evenodd" clip-rule="evenodd" d="M0.0361328 4.2218C0.0361328 3.07125 0.931528 2.13855 2.03605 2.13855H18.0354C19.14 2.13855 20.0354 3.07125 20.0354 4.2218V16.7213C20.0354 17.8718 19.14 18.8045 18.0354 18.8045H16.7153C16.7109 18.8046 16.7065 18.8046 16.7022 18.8046H2.49185C2.48808 18.8046 2.48432 18.8046 2.48056 18.8045H2.03606C0.931529 18.8045 0.0361328 17.8718 0.0361328 16.7213V4.2218ZM2.03605 3.70099H18.0354C18.3116 3.70099 18.5354 3.93416 18.5354 4.2218V10.7133L14.1903 6.30507L6.79804 13.8048L4.62047 11.5956L1.53607 14.7248V4.2218C1.53607 3.93416 1.75992 3.70099 2.03605 3.70099Z" fill="#006FFD"/>
</mask>
<g mask="url(#mask0_290_1232)">
<rect x="0.0361328" y="0.47113" width="19.9992" height="19.9992" fill="#B4DBFF"/>
</g>
</svg>
