<svg width="12" height="13" viewBox="0 0 12 13" fill="none" xmlns="http://www.w3.org/2000/svg">
<g clip-path="url(#clip0_290_540)">
<path d="M10.5 5.87878C10.5 9.37878 6 12.3788 6 12.3788C6 12.3788 1.5 9.37878 1.5 5.87878C1.5 4.68531 1.97411 3.54072 2.81802 2.6968C3.66193 1.85289 4.80653 1.37878 6 1.37878C7.19347 1.37878 8.33807 1.85289 9.18198 2.6968C10.0259 3.54072 10.5 4.68531 10.5 5.87878Z" stroke="black" stroke-linecap="round" stroke-linejoin="round"/>
<path d="M6 7.37878C6.82843 7.37878 7.5 6.70721 7.5 5.87878C7.5 5.05036 6.82843 4.37878 6 4.37878C5.17157 4.37878 4.5 5.05036 4.5 5.87878C4.5 6.70721 5.17157 7.37878 6 7.37878Z" stroke="black" stroke-linecap="round" stroke-linejoin="round"/>
</g>
<defs>
<clipPath id="clip0_290_540">
<rect width="12" height="12" fill="white" transform="translate(0 0.878784)"/>
</clipPath>
</defs>
</svg>
